<svg width="38" height="28" viewBox="0 0 38 28" fill="none" xmlns="http://www.w3.org/2000/svg">
<path d="M15.485 27.3326H19.9206L12.3234 6.57422H8.02818L0.425781 27.3326H4.74178L6.13538 23.2974H14.0914L15.485 27.3326ZM10.0822 11.4518L12.7966 19.569H7.40418L10.0822 11.4518Z" fill="#232323"/>
<path d="M36.6326 23.6094H21.0898V27.3326H36.6326V23.6094Z" fill="#F00037"/>
<path d="M34.329 10.3341C35.135 9.88691 35.7174 9.33051 36.0606 8.67531C36.4454 7.95771 36.6378 7.14131 36.6378 6.25731C36.6378 4.51531 36.0658 3.13211 34.9426 2.14411C33.8246 1.16131 32.2542 0.662109 30.2782 0.662109H21.0898V21.4153H30.715C31.7498 21.4153 32.6962 21.2697 33.5334 20.9837C34.3706 20.6977 35.0934 20.2869 35.6914 19.7669C36.2842 19.2417 36.7574 18.5969 37.085 17.8481C37.4126 17.0993 37.579 16.2465 37.579 15.3053C37.579 14.0781 37.267 13.0121 36.6534 12.1385C36.0866 11.3585 35.3118 10.7501 34.329 10.3341ZM25.2342 12.4869H30.325C31.3442 12.4869 32.0982 12.7105 32.5714 13.1525C33.0394 13.5945 33.2786 14.2497 33.2786 15.1077C33.2786 16.0333 32.9978 16.7041 32.4362 17.0941C31.8642 17.4945 31.1726 17.6973 30.3822 17.6973H25.2342V12.4869ZM31.937 8.17091C31.5262 8.56611 30.923 8.76371 30.143 8.76371H25.2342V4.33331H30.143C30.9802 4.33331 31.5938 4.54131 31.9786 4.95211C32.3634 5.36811 32.5558 5.91411 32.5558 6.57971C32.5558 7.25051 32.353 7.77051 31.937 8.17091Z" fill="#232323"/>
</svg>
