<svg width="12" height="65" viewBox="0 0 12 65" fill="none" xmlns="http://www.w3.org/2000/svg">
<path d="M6 64.5L8.88675 59.5L3.11325 59.5L6 64.5ZM5.5 3.7C5.5 3.97614 5.72386 4.2 6 4.2C6.27614 4.2 6.5 3.97614 6.5 3.7L5.5 3.7ZM6.5 10.1C6.5 9.82386 6.27614 9.6 6 9.6C5.72386 9.6 5.5 9.82386 5.5 10.1L6.5 10.1ZM5.5 16.5C5.5 16.7761 5.72386 17 6 17C6.27614 17 6.5 16.7761 6.5 16.5L5.5 16.5ZM6.5 22.9C6.5 22.6239 6.27614 22.4 6 22.4C5.72386 22.4 5.5 22.6239 5.5 22.9L6.5 22.9ZM5.5 29.3C5.5 29.5761 5.72386 29.8 6 29.8C6.27614 29.8 6.5 29.5761 6.5 29.3L5.5 29.3ZM6.5 35.7C6.5 35.4239 6.27614 35.2 6 35.2C5.72386 35.2 5.5 35.4239 5.5 35.7L6.5 35.7ZM5.5 42.1C5.5 42.3761 5.72386 42.6 6 42.6C6.27614 42.6 6.5 42.3761 6.5 42.1L5.5 42.1ZM6.5 48.5C6.5 48.2239 6.27614 48 6 48C5.72386 48 5.5 48.2239 5.5 48.5L6.5 48.5ZM5.5 54.9C5.5 55.1761 5.72386 55.4 6 55.4C6.27614 55.4 6.5 55.1761 6.5 54.9L5.5 54.9ZM6.5 61.3C6.5 61.0239 6.27614 60.8 6 60.8C5.72385 60.8 5.5 61.0239 5.5 61.3L6.5 61.3ZM5.5 0.5L5.5 3.7L6.5 3.7L6.5 0.5L5.5 0.5ZM5.5 10.1L5.5 16.5L6.5 16.5L6.5 10.1L5.5 10.1ZM5.5 22.9L5.5 29.3L6.5 29.3L6.5 22.9L5.5 22.9ZM5.5 35.7L5.5 42.1L6.5 42.1L6.5 35.7L5.5 35.7ZM5.5 48.5L5.5 54.9L6.5 54.9L6.5 48.5L5.5 48.5ZM6 64.5L11.7735 54.5L0.226495 54.5L6 64.5ZM5 3.7C5 4.25228 5.44772 4.7 6 4.7C6.55228 4.7 7 4.25228 7 3.7L5 3.7ZM7 10.1C7 9.54772 6.55228 9.1 6 9.1C5.44771 9.1 5 9.54772 5 10.1L7 10.1ZM5 16.5C5 17.0523 5.44771 17.5 6 17.5C6.55228 17.5 7 17.0523 7 16.5L5 16.5ZM7 22.9C7 22.3477 6.55228 21.9 6 21.9C5.44771 21.9 5 22.3477 5 22.9L7 22.9ZM5 29.3C5 29.8523 5.44771 30.3 6 30.3C6.55228 30.3 7 29.8523 7 29.3L5 29.3ZM7 35.7C7 35.1477 6.55228 34.7 6 34.7C5.44771 34.7 5 35.1477 5 35.7L7 35.7ZM5 42.1C5 42.6523 5.44771 43.1 6 43.1C6.55228 43.1 7 42.6523 7 42.1L5 42.1ZM7 48.5C7 47.9477 6.55228 47.5 6 47.5C5.44771 47.5 5 47.9477 5 48.5L7 48.5ZM5 54.9C5 55.4523 5.44771 55.9 6 55.9C6.55228 55.9 7 55.4523 7 54.9L5 54.9ZM7 61.3C7 60.7477 6.55228 60.3 6 60.3C5.44771 60.3 5 60.7477 5 61.3L7 61.3ZM5 0.5L5 3.7L7 3.7L7 0.5L5 0.5ZM5 10.1L5 16.5L7 16.5L7 10.1L5 10.1ZM5 22.9L5 29.3L7 29.3L7 22.9L5 22.9ZM5 35.7L5 42.1L7 42.1L7 35.7L5 35.7ZM5 48.5L5 54.9L7 54.9L7 48.5L5 48.5Z" fill="#F00037"/>
</svg>
